REM COMMENT "Generated by cuetube 0.1.0 - Fri Sep 08 2017 08:34:40 GMT+0200 (Paris, Madrid (heure d’été))"
TITLE "Debussy - Estampes - Richter Salzburg 1977"
REM SRC "https://www.youtube.com/watch?v=xHJ-XKBzBMk"
PERFORMER "incontrario motu"
FILE "https://www.youtube.com/watch?v=xHJ-XKBzBMk" MP3
  TRACK 01 MP3
    TITLE "Pagodes"
    INDEX 01 00:00:00
  TRACK 02 MP3
    TITLE "La soirée dans Grenade"
    INDEX 01 05:55:00
  TRACK 03 MP3
    TITLE "Jardins sous la pluie"
    INDEX 01 11:01:00
